PathFileType	4	(X/Y/Z)	C:/Users/opensim2020/Desktop/walking_exp_matlab/subject02_walking12_straight_02.trc																																																																																																																												
DataRate	CameraRate	NumFrames	NumMarkers	Units	OrigDataRate	OrigDataStartFrame	OrigNumFrames																																																																																																																								
100	100	5	42	mm	100	1090	149																																																																																																																								
Frame#	Time	LFHD			RFHD			LBHD			RBHD			C7			T10			CLAV			STRN			RBAK			LSHO			LUPA			LELB			LFRM			LWRA			LWRB			LFIN			RSHO			RUPA			RELB			RFRM			RWRA			RWRB			RFIN			LASI			RASI			LPSI			RPSI			LTHI			LKNE			LTIB			LANK			LHEE			LTOE			RTHI			RKNE			RTIB			RANK			RHEE			RTOE			*39			*40			*41		
		X1	Y1	Z1	X2	Y2	Z2	X3	Y3	Z3	X4	Y4	Z4	X5	Y5	Z5	X6	Y6	Z6	X7	Y7	Z7	X8	Y8	Z8	X9	Y9	Z9	X10	Y10	Z10	X11	Y11	Z11	X12	Y12	Z12	X13	Y13	Z13	X14	Y14	Z14	X15	Y15	Z15	X16	Y16	Z16	X17	Y17	Z17	X18	Y18	Z18	X19	Y19	Z19	X20	Y20	Z20	X21	Y21	Z21	X22	Y22	Z22	X23	Y23	Z23	X24	Y24	Z24	X25	Y25	Z25	X26	Y26	Z26	X27	Y27	Z27	X28	Y28	Z28	X29	Y29	Z29	X30	Y30	Z30	X31	Y31	Z31	X32	Y32	Z32	X33	Y33	Z33	X34	Y34	Z34	X35	Y35	Z35	X36	Y36	Z36	X37	Y37	Z37	X38	Y38	Z38	X39	Y39	Z39	X40	Y40	Z40	X41	Y41	Z41	X42	Y42	Z42
																																																																																																																															
75	0.74	68.12061	1715.12561	-1525.00354	52.54951	1693.36279	-1383.34473	-62.83224	1644.20532	-1548.38147	-90.42538	1622.01257	-1408.64319	-124.08212	1501.95605	-1474.2854	-179.94243	1225.93018	-1469.37793	14.62035	1430.97644	-1487.71155	64.4949	1259.81726	-1469.28491	-182.86285	1330.22388	-1404.62988	-61.37463	1468.41333	-1655.12671	-144.26378	1281.08826	-1716.51514	-196.64186	1149.51196	-1706.33826	-245.37071	1026.96887	-1706.9989	-256.76889	893.62024	-1653.34216	-289.90152	910.4469	-1696.50635	-315.09781	847.20184	-1677.72339	-43.66877	1473.53564	-1291.39124	-39.20585	1290.9436	-1191.65466	13.87	1153.01758	-1158.06055	94.49378	1060.80835	-1148.78076	193.19687	974.75769	-1178.54968	157.71715	947.57605	-1143.49438	222.21581	916.55249	-1143.94153	70.6655	967.92096	-1576.67126	25.25617	947.71991	-1321.87878	-152.3484	1006.65796	-1533.52588	-173.69193	1006.58264	-1423.18945	86.61887	674.57336	-1663.97534	123.5265	477.3356	-1643.25195	135.66504	284.75464	-1658.6217	222.63646	74.87448	-1644.30786	199.76181	34.8404	-1593.81982	379.29257	86.05716	-1649.28857	-133.52766	660.94586	-1279.78186	-191.1398	458.5687	-1321.42346	-298.71445	302.26117	-1323.05664	-378.77582	124.69911	-1361.07739	-421.96118	79.89658	-1420.08398	-246.73775	36.72286	-1334.69385	-41.1158	1781.95544	-1444.47449	-2845.15332	1034.28735	3360.34424	NaN	NaN	NaN
76	0.75	80.71716	1713.26746	-1527.42419	65.17529	1691.60132	-1385.6925	-50.34351	1642.96729	-1550.72314	-78.08773	1620.89001	-1411.01343	-112.02633	1500.34045	-1476.66138	-166.61887	1223.8252	-1472.02112	27.04561	1430.00598	-1490.15503	77.78029	1259.08154	-1471.9574	-170.43779	1328.33813	-1407.23975	-49.04615	1467.4563	-1657.45154	-131.45042	1279.85498	-1719.25098	-183.54227	1148.49951	-1708.90503	-232.32668	1025.95081	-1709.53809	-244.97354	892.68738	-1655.45203	-277.11038	909.21863	-1698.94934	-304.09866	846.96246	-1680.27075	-31.56748	1472.17542	-1293.84619	-26.93528	1289.5144	-1194.04822	25.96204	1152.03235	-1160.3313	107.2617	1060.38037	-1150.92285	206.91978	975.41364	-1180.3501	171.48682	947.69159	-1145.703	236.26695	917.50897	-1145.60999	86.17248	967.85742	-1579.323	40.38633	946.7326	-1324.2627	-137.32672	1004.97131	-1536.9231	-158.65547	1004.71954	-1426.78943	104.03664	674.4809	-1666.41492	137.59157	475.60089	-1645.0658	144.82536	282.19357	-1659.08569	226.6884	70.63255	-1643.83484	203.19167	31.89154	-1593.40381	383.45114	78.78715	-1649.42224	-120.17352	660.70825	-1281.22314	-179.28439	458.8111	-1320.99182	-290.8168	305.24207	-1322.8158	-375.54608	129.85333	-1360.00427	-419.45639	86.55243	-1419.0719	-246.38214	36.84567	-1334.29858	-28.06974	1780.59497	-1446.79285	-2845.15625	1034.3324	3360.2395	NaN	NaN	NaN
77	0.76	93.42727	1711.41663	-1529.70703	77.59129	1689.65808	-1387.94482	-37.80541	1641.62427	-1552.98914	-65.86127	1619.63147	-1413.49524	-100.04614	1498.59998	-1479.19714	-153.18466	1221.54089	-1474.78918	39.46603	1428.96436	-1492.59534	91.27473	1258.42334	-1474.70752	-157.36403	1326.08606	-1409.72998	-36.64593	1466.578	-1659.82666	-118.32285	1278.60132	-1722.04041	-169.66769	1147.00659	-1711.25977	-218.46562	1024.73425	-1712.40088	-232.27945	891.19122	-1657.50012	-263.72015	908.26056	-1702.37854	-291.28394	845.82062	-1682.6687	-19.99343	1470.82947	-1296.62427	-15.06482	1288.40833	-1196.86853	37.75817	1151.0094	-1162.63965	119.70761	1059.90271	-1153.16162	220.11745	975.82983	-1182.2666	184.73746	947.64594	-1147.96313	249.94354	918.26599	-1147.44556	101.82343	967.95575	-1582.44971	55.99685	945.91797	-1327.245	-122.09227	1003.19629	-1540.41357	-143.34798	1002.82605	-1430.46985	120.73744	673.93341	-1668.9751	150.90623	473.61047	-1647.31934	153.52785	279.3222	-1659.1897	230.71196	66.93438	-1642.96826	205.81714	32.01421	-1592.65759	388.85461	68.79089	-1649.177	-106.52599	660.5929	-1282.60962	-166.82655	459.2739	-1320.16992	-282.41586	308.51013	-1322.31946	-371.78784	135.38754	-1358.67285	-416.50754	93.88763	-1417.922	-246.06192	36.7204	-1333.96924	-15.11082	1779.08337	-1449.07764	-2845.89355	1034.31006	3357.37329	NaN	NaN	NaN
78	0.77	106.26945	1709.97302	-1532.03284	90.13725	1687.98853	-1390.16028	-25.41336	1640.55139	-1555.70288	-53.47789	1618.45288	-1416.00659	-88.21365	1496.82996	-1481.81799	-139.66548	1219.45764	-1477.85706	51.98864	1428.06873	-1495.17847	104.84613	1257.97852	-1477.47925	-144.88031	1324.14136	-1412.77283	-24.21429	1465.75183	-1662.28796	-104.94709	1277.27808	-1724.91248	-155.76389	1145.82983	-1714.34375	-203.99892	1023.2854	-1715.5293	-217.73003	890.14935	-1661.11377	-249.15297	906.685	-1705.90076	-277.83109	844.79565	-1686.24976	-8.63121	1469.60559	-1299.64551	-3.6059	1287.1991	-1199.67273	49.29212	1149.91724	-1165.02039	131.99274	1059.26208	-1155.40173	232.86641	975.95325	-1184.31738	197.57031	947.37811	-1150.29358	263.0979	918.62036	-1149.474	117.18257	968.04797	-1585.85938	72.2036	945.27301	-1330.64246	-106.67728	1001.46112	-1543.96863	-128.07924	1000.93457	-1434.32312	136.11797	673.29462	-1671.57275	162.75807	472.24881	-1650.599	162.87149	276.95874	-1658.12476	237.08736	66.63715	-1643.99207	210.09686	34.92097	-1593.70923	396.28259	54.62386	-1650.58618	-92.27907	660.58997	-1284.32397	-153.532	459.69528	-1319.45886	-273.23914	311.9729	-1321.72302	-367.38315	141.40904	-1357.00757	-412.67841	101.76703	-1416.35718	-245.32872	36.80197	-1333.1665	-2.27841	1777.75647	-1451.39026	-2845.93921	1034.33887	3357.21265	NaN	NaN	NaN
79	0.78	119.16986	1709.08362	-1534.13818	102.72495	1687.02173	-1392.30078	-12.63306	1640.05469	-1558.1842	-41.01169	1617.82263	-1418.50024	-76.6264	1495.4165	-1484.60571	-126.02591	1218.28064	-1481.09607	64.43987	1427.60596	-1497.78638	118.0596	1258.07739	-1480.18481	-131.66446	1322.38733	-1415.69531	-11.82136	1465.07251	-1664.91919	-91.44717	1276.08923	-1728.13086	-141.30643	1144.24573	-1717.42883	-188.95183	1021.62372	-1718.89258	-204.39828	887.85297	-1663.7439	-233.76216	904.91663	-1709.74329	-262.93951	843.08533	-1690.00378	2.92958	1468.47034	-1302.10901	7.95707	1285.80359	-1202.19373	60.59183	1148.72107	-1167.51794	143.50601	1058.47144	-1157.7876	245.319	975.77667	-1186.38501	209.97943	946.88702	-1152.61707	275.66928	918.55273	-1151.56604	132.33974	968.33752	-1589.63123	88.75885	944.67249	-1334.49292	-91.04793	1000.34766	-1547.58142	-112.79832	998.93091	-1438.07214	149.47414	673.58154	-1674.67554	174.49944	472.46606	-1654.37671	174.88858	277.39661	-1656.6438	244.10083	66.75443	-1648.3175	213.80133	37.0713	-1598.03821	403.47842	45.32143	-1649.16772	-77.38321	660.64258	-1286.13452	-139.19635	460.25131	-1318.57324	-263.10263	315.70175	-1320.93396	-362.00745	148.05157	-1355.10303	-407.89258	110.50803	-1414.64685	-244.62596	36.72982	-1332.5481	10.71342	1777.04553	-1453.52527	NaN	NaN	NaN	NaN	NaN	NaN
